<svg width="292" height="292" viewBox="0 0 292 292" fill="none" xmlns="http://www.w3.org/2000/svg">
<path d="M152.703 91.4356L201.179 13.4048L237.555 37.4418L189.032 115.576L186.878 119.045L190.938 118.621L284.142 108.886L289.544 151.243L196.431 160.968L192.257 161.404L195.224 164.372L261.164 230.312L230.312 261.164L164.372 195.224L161.404 192.256L160.968 196.431L151.249 289.55L108.886 284.143L118.615 190.932L119.038 186.871L115.57 189.025L37.4418 237.555L13.4048 201.179L91.4356 152.703L94.898 150.552L91.078 149.129L2.73026 116.238L16.0148 75.2853L104.213 108.132L108.216 109.623L106.797 105.593L75.2501 16.022L116.238 2.72613L149.129 91.0779L150.552 94.898L152.703 91.4356Z" stroke="url(#paint0_linear_845_3156)" stroke-width="4"/>
<defs>
<linearGradient id="paint0_linear_845_3156" x1="43.7174" y1="43.7174" x2="247.152" y2="247.152" gradientUnits="userSpaceOnUse">
<stop stop-color="#807E7E"/>
<stop offset="1" stop-color="#111111" stop-opacity="0"/>
</linearGradient>
</defs>
</svg>
